<svg width="394.679931640625px" height="76.43999023437499px" xmlns="http://www.w3.org/2000/svg" viewBox="52.6600341796875 36.780004882812506 394.679931640625 76.43999023437499" style="background: rgba(0, 0, 0, 0);" preserveAspectRatio="xMidYMid"><defs><linearGradient id="editing-sticker-gradient" x1="0.8" y1="0.49999999999999994" x2="0.2" y2="0.5"><stop offset="0" stop-color="#fd9"></stop><stop offset="1" stop-color="#9df"></stop></linearGradient><filter id="editing-sticker" x="-100%" y="-100%" width="300%" height="300%"><feMorphology operator="erode" radius="1" in="SourceAlpha" result="alpha-erode"></feMorphology><feConvolveMatrix order="3,3" divisor="1" kernelMatrix="0 1 0 1 1 1 0 1 0" in="alpha-erode" result="alpha-round"></feConvolveMatrix><feMorphology operator="dilate" radius="3.5" in="alpha-round" result="dilate-shadow"></feMorphology><feGaussianBlur in="dilate-shadow" stdDeviation="1.5" result="shadow"></feGaussianBlur><feFlood flood-color="#fff" result="flood-sticker"></feFlood><feComposite operator="in" in="flood-sticker" in2="alpha-round" result="comp-sticker"></feComposite><feMorphology operator="dilate" radius="3" in="comp-sticker" result="morph-sticker"></feMorphology><feConvolveMatrix order="3,3" divisor="1" kernelMatrix="0 1 0 1 1 1 0 1 0" in="morph-sticker" result="sticker"></feConvolveMatrix><feMerge><feMergeNode in="shadow"></feMergeNode><feMergeNode in="sticker"></feMergeNode><feMergeNode in="SourceGraphic"></feMergeNode></feMerge></filter></defs><g filter="url(#editing-sticker)"><g transform="translate(110.0249981880188, 88.90999984741211)"><path d="M18.05 0L5.02 0L5.02-27.17L17.63-27.17L17.63-25.57L6.84-25.57L6.84-15.58L16.61-15.58L16.61-14.02L6.84-14.02L6.84-1.60L18.05-1.60L18.05 0ZM32.79-1.29L32.79-1.29L32.79-1.29Q37.66-1.29 40.60-3.91L40.60-3.91L40.60-3.91Q43.55-6.54 43.55-11.82L43.55-11.82L43.55-11.82Q43.55-17.10 40.22-20.22L40.22-20.22L40.22-20.22Q36.90-23.33 32.03-23.33L32.03-23.33L32.03-23.33Q28.58-23.33 26.71-23.18L26.71-23.18L26.71-1.56L26.71-1.56Q28.99-1.29 32.79-1.29ZM32.03-24.89L32.03-24.89L32.03-24.89Q37.73-24.89 41.55-21.38L41.55-21.38L41.55-21.38Q45.37-17.86 45.37-11.82L45.37-11.82L45.37-11.82Q45.37-5.78 41.86-2.74L41.86-2.74L41.86-2.74Q38.34 0.30 32.79 0.30L32.79 0.30L32.79 0.30Q28.96 0.30 24.89-0.08L24.89-0.08L24.89-24.66L24.89-24.66Q27.93-24.89 32.03-24.89ZM54.72 0L52.97 0L52.97-24.66L54.72-24.66L54.72 0ZM68.82-23.60L68.82-23.60L68.82-23.60Q66.77-23.60 65.47-22.61L65.47-22.61L65.47-22.61Q64.18-21.62 64.18-19.84L64.18-19.84L64.18-19.84Q64.18-17.78 65.89-16.15L65.89-16.15L65.89-16.15Q67.11-14.97 69.03-13.66L69.03-13.66L69.03-13.66Q70.95-12.35 71.67-11.78L71.67-11.78L71.67-11.78Q72.39-11.21 73.42-10.22L73.42-10.22L73.42-10.22Q75.28-8.36 75.28-5.93L75.28-5.93L75.28-5.93Q75.28-2.77 73.17-1.16L73.17-1.16L73.17-1.16Q71.06 0.46 67.28 0.46L67.28 0.46L67.28 0.46Q63.50 0.46 60.95-1.52L60.95-1.52L61.86-2.85L61.86-2.85Q64.45-1.10 67.34-1.10L67.34-1.10L67.34-1.10Q70.22-1.10 71.84-2.32L71.84-2.32L71.84-2.32Q73.45-3.53 73.45-5.74L73.45-5.74L73.45-5.74Q73.45-7.64 71.82-9.23L71.82-9.23L71.82-9.23Q70.68-10.37 68.76-11.70L68.76-11.70L68.76-11.70Q66.84-13.03 66.08-13.62L66.08-13.62L66.08-13.62Q65.32-14.21 64.30-15.20L64.30-15.20L64.30-15.20Q62.36-17.14 62.36-19.68L62.36-19.68L62.36-19.68Q62.36-22.23 64.16-23.67L64.16-23.67L64.16-23.67Q65.97-25.12 69.16-25.12L69.16-25.12L69.16-25.12Q72.35-25.12 74.90-23.86L74.90-23.86L74.25-22.46L74.25-22.46Q71.90-23.60 68.82-23.60ZM93.18 0.38L93.18 0.38L93.18 0.38Q87.89 0.38 84.32-3.31L84.32-3.31L84.32-3.31Q80.75-6.99 80.75-12.33L80.75-12.33L80.75-12.33Q80.75-17.67 84.32-21.36L84.32-21.36L84.32-21.36Q87.89-25.04 93.18-25.04L93.18-25.04L93.18-25.04Q98.46-25.04 102.03-21.36L102.03-21.36L102.03-21.36Q105.60-17.67 105.60-12.33L105.60-12.33L105.60-12.33Q105.60-6.99 102.03-3.31L102.03-3.31L102.03-3.31Q98.46 0.38 93.18 0.38ZM93.20-23.48L93.20-23.48L93.20-23.48Q88.62-23.48 85.60-20.25L85.60-20.25L85.60-20.25Q82.57-17.02 82.57-12.33L82.57-12.33L82.57-12.33Q82.57-7.64 85.60-4.43L85.60-4.43L85.60-4.43Q88.62-1.22 93.20-1.22L93.20-1.22L93.20-1.22Q97.77-1.22 100.78-4.43L100.78-4.43L100.78-4.43Q103.78-7.64 103.78-12.33L103.78-12.33L103.78-12.33Q103.78-17.02 100.78-20.25L100.78-20.25L100.78-20.25Q97.77-23.48 93.20-23.48ZM114.95 0L113.20 0L113.20-24.81L114.04-24.81L130.23-6.19L130.23-6.19Q131.10-5.21 131.84-4.24L131.84-4.24L131.84-4.24Q132.58-3.27 132.62-3.23L132.62-3.23L132.62-3.23Q132.54-4.14 132.54-6.80L132.54-6.80L132.54-24.66L134.29-24.66L134.29 0.15L133.46 0.15L116.96-18.77L114.87-21.32L114.87-21.32Q114.95-20.56 114.95-17.75L114.95-17.75L114.95 0ZM171.15-9.42L158.99-9.42L155.08 0L153.14 0L164.58-27.36L165.64-27.36L177.12 0L175.07 0L171.15-9.42ZM165.00-24.32L165.00-24.32L165.00-24.32Q164.96-24.28 164.84-23.86L164.84-23.86L164.84-23.86Q164.31-22.23 163.82-21.09L163.82-21.09L159.64-10.98L170.51-10.98L166.33-21.05L166.33-21.05Q165.00-23.94 165.00-24.32ZM182.25-0.08L182.25-24.55L182.25-24.55Q184.95-24.78 187.80-24.78L187.80-24.78L187.80-24.78Q190.65-24.78 192.68-23.41L192.68-23.41L192.68-23.41Q194.71-22.04 194.71-19.42L194.71-19.42L194.71-19.42Q194.71-17.44 193.65-15.77L193.65-15.77L193.65-15.77Q192.58-14.10 191.06-13.22L191.06-13.22L191.06-13.22Q193.53-12.50 195.17-10.64L195.17-10.64L195.17-10.64Q196.80-8.78 196.80-6.42L196.80-6.42L196.80-6.42Q196.80-3.15 194.73-1.48L194.73-1.48L194.73-1.48Q192.66 0.19 188.90 0.19L188.90 0.19L188.90 0.19Q185.14 0.19 182.25-0.08L182.25-0.08ZM185.71-12.46L185.71-12.46L184.00-12.43L184.00-1.52L184.00-1.52Q185.63-1.37 189.28-1.37L189.28-1.37L189.28-1.37Q191.75-1.37 193.36-2.75L193.36-2.75L193.36-2.75Q194.98-4.14 194.98-6.25L194.98-6.25L194.98-6.25Q194.98-8.36 193.36-9.94L193.36-9.94L193.36-9.94Q191.75-11.51 189.16-12.16L189.16-12.16L189.16-12.16Q187.83-12.46 185.71-12.46ZM193.00-19.46L193.00-19.46L193.00-19.46Q193.00-21.32 191.44-22.32L191.44-22.32L191.44-22.32Q189.89-23.33 187.72-23.33L187.72-23.33L187.72-23.33Q185.55-23.33 184.00-23.22L184.00-23.22L184.00-13.91L184.00-13.91Q187.30-13.91 189.28-13.72L189.28-13.72L189.28-13.72Q190.76-14.52 191.88-16.05L191.88-16.05L191.88-16.05Q193.00-17.59 193.00-19.46ZM211.93-1.29L211.93-1.29L211.93-1.29Q216.79-1.29 219.73-3.91L219.73-3.91L219.73-3.91Q222.68-6.54 222.68-11.82L222.68-11.82L222.68-11.82Q222.68-17.10 219.35-20.22L219.35-20.22L219.35-20.22Q216.03-23.33 211.17-23.33L211.17-23.33L211.17-23.33Q207.71-23.33 205.85-23.18L205.85-23.18L205.85-1.56L205.85-1.56Q208.13-1.29 211.93-1.29ZM211.17-24.89L211.17-24.89L211.17-24.89Q216.87-24.89 220.69-21.38L220.69-21.38L220.69-21.38Q224.50-17.86 224.50-11.82L224.50-11.82L224.50-11.82Q224.50-5.78 220.99-2.74L220.99-2.74L220.99-2.74Q217.47 0.30 211.93 0.30L211.93 0.30L211.93 0.30Q208.09 0.30 204.02-0.08L204.02-0.08L204.02-24.66L204.02-24.66Q207.06-24.89 211.17-24.89ZM233.85 0L232.10 0L232.10-24.66L233.85-24.66L233.85 0ZM254.87 0L242.97 0L242.97-24.66L254.49-24.66L254.49-23.14L244.72-23.14L244.72-14.17L253.54-14.17L253.54-12.69L244.72-12.69L244.72-1.60L254.87-1.60L254.87 0ZM274.93 0L261.86 0L261.86-24.66L263.61-24.66L263.61-1.60L274.93-1.60L274.93 0Z" fill="url(#editing-sticker-gradient)" stroke="#000" stroke-width="6"></path></g></g><style>text {
  font-size: 64px;
  font-family: Arial Black;
  dominant-baseline: central;
  text-anchor: middle;
}</style></svg>